<svg width="168" height="48" viewBox="0 0 168 48" fill="none" xmlns="http://www.w3.org/2000/svg">
<path d="M16.5999 32.3664L10.3999 36.0997C10.2222 36.2109 10.0333 36.2609 9.83328 36.2497C9.63328 36.2386 9.4555 36.1775 9.29994 36.0664C9.14439 35.9553 9.02772 35.8109 8.94994 35.6331C8.87217 35.4553 8.8555 35.2553 8.89994 35.0331L10.5333 27.9664L5.06661 23.1997C4.88883 23.0442 4.78328 22.872 4.74994 22.6831C4.71661 22.4942 4.72217 22.3109 4.76661 22.1331C4.81106 21.9553 4.91106 21.8053 5.06661 21.6831C5.22217 21.5609 5.41106 21.4886 5.63328 21.4664L12.8666 20.8331L15.6666 14.1664C15.7555 13.9664 15.8888 13.8164 16.0666 13.7164C16.2444 13.6164 16.4222 13.5664 16.5999 13.5664C16.7777 13.5664 16.9555 13.6164 17.1333 13.7164C17.3111 13.8164 17.4444 13.9664 17.5333 14.1664L20.3333 20.8331L27.5666 21.4664C27.7888 21.4886 27.9777 21.5609 28.1333 21.6831C28.2888 21.8053 28.3888 21.9553 28.4333 22.1331C28.4777 22.3109 28.4833 22.4942 28.4499 22.6831C28.4166 22.872 28.3111 23.0442 28.1333 23.1997L22.6666 27.9664L24.2999 35.0331C24.3444 35.2553 24.3277 35.4553 24.2499 35.6331C24.1722 35.8109 24.0555 35.9553 23.8999 36.0664C23.7444 36.1775 23.5666 36.2386 23.3666 36.2497C23.1666 36.2609 22.9777 36.2109 22.7999 36.0997L16.5999 32.3664Z" fill="black"/>
<path d="M48.5999 32.3664L42.3999 36.0997C42.2222 36.2109 42.0333 36.2609 41.8333 36.2497C41.6333 36.2386 41.4555 36.1775 41.2999 36.0664C41.1444 35.9553 41.0277 35.8109 40.9499 35.6331C40.8722 35.4553 40.8555 35.2553 40.8999 35.0331L42.5333 27.9664L37.0666 23.1997C36.8888 23.0442 36.7833 22.872 36.7499 22.6831C36.7166 22.4942 36.7222 22.3109 36.7666 22.1331C36.8111 21.9553 36.9111 21.8053 37.0666 21.6831C37.2222 21.5609 37.4111 21.4886 37.6333 21.4664L44.8666 20.8331L47.6666 14.1664C47.7555 13.9664 47.8888 13.8164 48.0666 13.7164C48.2444 13.6164 48.4222 13.5664 48.5999 13.5664C48.7777 13.5664 48.9555 13.6164 49.1333 13.7164C49.3111 13.8164 49.4444 13.9664 49.5333 14.1664L52.3333 20.8331L59.5666 21.4664C59.7888 21.4886 59.9777 21.5609 60.1333 21.6831C60.2888 21.8053 60.3888 21.9553 60.4333 22.1331C60.4777 22.3109 60.4833 22.4942 60.4499 22.6831C60.4166 22.872 60.3111 23.0442 60.1333 23.1997L54.6666 27.9664L56.2999 35.0331C56.3444 35.2553 56.3277 35.4553 56.2499 35.6331C56.1722 35.8109 56.0555 35.9553 55.8999 36.0664C55.7444 36.1775 55.5666 36.2386 55.3666 36.2497C55.1666 36.2609 54.9777 36.2109 54.7999 36.0997L48.5999 32.3664Z" fill="black"/>
<path d="M80.5999 32.3664L74.3999 36.0997C74.2222 36.2109 74.0333 36.2609 73.8333 36.2497C73.6333 36.2386 73.4555 36.1775 73.2999 36.0664C73.1444 35.9553 73.0277 35.8109 72.9499 35.6331C72.8722 35.4553 72.8555 35.2553 72.8999 35.0331L74.5333 27.9664L69.0666 23.1997C68.8888 23.0442 68.7833 22.872 68.7499 22.6831C68.7166 22.4942 68.7222 22.3109 68.7666 22.1331C68.8111 21.9553 68.9111 21.8053 69.0666 21.6831C69.2222 21.5609 69.4111 21.4886 69.6333 21.4664L76.8666 20.8331L79.6666 14.1664C79.7555 13.9664 79.8888 13.8164 80.0666 13.7164C80.2444 13.6164 80.4222 13.5664 80.5999 13.5664C80.7777 13.5664 80.9555 13.6164 81.1333 13.7164C81.3111 13.8164 81.4444 13.9664 81.5333 14.1664L84.3333 20.8331L91.5666 21.4664C91.7888 21.4886 91.9777 21.5609 92.1333 21.6831C92.2888 21.8053 92.3888 21.9553 92.4333 22.1331C92.4777 22.3109 92.4833 22.4942 92.4499 22.6831C92.4166 22.872 92.3111 23.0442 92.1333 23.1997L86.6666 27.9664L88.2999 35.0331C88.3444 35.2553 88.3277 35.4553 88.2499 35.6331C88.1722 35.8109 88.0555 35.9553 87.8999 36.0664C87.7444 36.1775 87.5666 36.2386 87.3666 36.2497C87.1666 36.2609 86.9777 36.2109 86.7999 36.0997L80.5999 32.3664Z" fill="black"/>
<path d="M112.6 32.3664L106.4 36.0997C106.222 36.2109 106.033 36.2609 105.833 36.2497C105.633 36.2386 105.456 36.1775 105.3 36.0664C105.144 35.9553 105.028 35.8109 104.95 35.6331C104.872 35.4553 104.855 35.2553 104.9 35.0331L106.533 27.9664L101.067 23.1997C100.889 23.0442 100.783 22.872 100.75 22.6831C100.717 22.4942 100.722 22.3109 100.767 22.1331C100.811 21.9553 100.911 21.8053 101.067 21.6831C101.222 21.5609 101.411 21.4886 101.633 21.4664L108.867 20.8331L111.667 14.1664C111.755 13.9664 111.889 13.8164 112.067 13.7164C112.244 13.6164 112.422 13.5664 112.6 13.5664C112.778 13.5664 112.955 13.6164 113.133 13.7164C113.311 13.8164 113.444 13.9664 113.533 14.1664L116.333 20.8331L123.567 21.4664C123.789 21.4886 123.978 21.5609 124.133 21.6831C124.289 21.8053 124.389 21.9553 124.433 22.1331C124.478 22.3109 124.483 22.4942 124.45 22.6831C124.417 22.872 124.311 23.0442 124.133 23.1997L118.667 27.9664L120.3 35.0331C120.344 35.2553 120.328 35.4553 120.25 35.6331C120.172 35.8109 120.056 35.9553 119.9 36.0664C119.744 36.1775 119.567 36.2386 119.367 36.2497C119.167 36.2609 118.978 36.2109 118.8 36.0997L112.6 32.3664Z" fill="black"/>
<path d="M144.6 17.1331V30.0331L149.833 33.1997L148.433 27.2664L153.033 23.2664L146.967 22.7331L144.6 17.1331ZM144.6 32.3664L138.4 36.0997C138.222 36.2109 138.033 36.2609 137.833 36.2497C137.633 36.2386 137.456 36.1775 137.3 36.0664C137.144 35.9553 137.028 35.8109 136.95 35.6331C136.872 35.4553 136.855 35.2553 136.9 35.0331L138.533 27.9664L133.067 23.1997C132.889 23.0442 132.783 22.872 132.75 22.6831C132.717 22.4942 132.722 22.3109 132.767 22.1331C132.811 21.9553 132.911 21.8053 133.067 21.6831C133.222 21.5609 133.411 21.4886 133.633 21.4664L140.867 20.8331L143.667 14.1664C143.755 13.9664 143.889 13.8164 144.067 13.7164C144.244 13.6164 144.422 13.5664 144.6 13.5664C144.778 13.5664 144.955 13.6164 145.133 13.7164C145.311 13.8164 145.444 13.9664 145.533 14.1664L148.333 20.8331L155.567 21.4664C155.789 21.4886 155.978 21.5609 156.133 21.6831C156.289 21.8053 156.389 21.9553 156.433 22.1331C156.478 22.3109 156.483 22.4942 156.45 22.6831C156.417 22.872 156.311 23.0442 156.133 23.1997L150.667 27.9664L152.3 35.0331C152.344 35.2553 152.328 35.4553 152.25 35.6331C152.172 35.8109 152.056 35.9553 151.9 36.0664C151.744 36.1775 151.567 36.2386 151.367 36.2497C151.167 36.2609 150.978 36.2109 150.8 36.0997L144.6 32.3664Z" fill="black"/>
</svg>
