<svg width="201" height="41" viewBox="0 0 201 41" fill="none" xmlns="http://www.w3.org/2000/svg">
<g clip-path="url(#clip0_2001_78)">
<g clip-path="url(#clip1_2001_78)">
<g clip-path="url(#clip2_2001_78)">
<path fill-rule="evenodd" clip-rule="evenodd" d="M19.2606 4.50058C19.4019 4.50058 19.5442 4.51696 19.6845 4.54972C23.0747 5.36011 26.1506 7.31912 28.346 10.0664C30.6058 12.8965 31.8016 16.3076 31.8016 19.9317C31.8016 23.5549 30.6058 26.967 28.346 29.7961C26.1506 32.5443 23.0747 34.5043 19.6845 35.3128C19.5442 35.3465 19.4019 35.3638 19.2606 35.3638C18.2552 35.3638 17.4353 34.5361 17.4353 33.5185C17.4353 32.6388 18.0149 31.8862 18.8435 31.6867C21.8751 30.9582 24.5713 29.0147 26.2467 26.3464L26.2592 26.3262C26.5015 25.9215 26.5072 25.4358 26.2765 25.0273C26.0353 24.6004 25.5873 24.3354 25.1058 24.3354C24.9097 24.3354 24.7194 24.3788 24.5377 24.4636C23.8735 24.7767 23.1632 24.9357 22.425 24.9357C19.7874 24.9357 17.6016 22.8649 17.4497 20.2218L17.4488 20.2073L17.4468 20.1929C17.4391 20.1196 17.4353 20.0541 17.4353 19.9934V19.8701C17.4353 19.8084 17.4391 19.7438 17.4468 19.6706L17.4488 19.6561L17.4497 19.6407C17.6016 16.9985 19.7874 14.9287 22.425 14.9287C23.1632 14.9287 23.8735 15.0858 24.5377 15.3989C24.7194 15.4847 24.9097 15.5281 25.1058 15.5281C25.5873 15.5281 26.0353 15.2631 26.2765 14.8372C26.5072 14.4286 26.5015 13.9429 26.2612 13.5411L26.2419 13.5093C24.5713 10.8488 21.8751 8.90521 18.8435 8.17576C18.0149 7.97726 17.4353 7.22372 17.4353 6.34492C17.4353 5.32831 18.2552 4.50058 19.2606 4.50058ZM12.9658 4.5C13.9721 4.5 14.7911 5.32774 14.7911 6.3453C14.7911 7.22411 14.2125 7.97765 13.3839 8.17615C10.3522 8.9056 7.65506 10.8492 5.98447 13.5107L5.9739 13.527L5.96909 13.5347C5.72591 13.9424 5.71822 14.428 5.94987 14.8366C6.19113 15.2635 6.64002 15.5284 7.12159 15.5284C7.31671 15.5284 7.50703 15.4851 7.6887 15.3993C8.3529 15.0871 9.06324 14.9281 9.80145 14.9281C12.44 14.9281 14.6258 16.9979 14.7767 19.6421L14.7776 19.6565L14.7796 19.671C14.7873 19.7432 14.7911 19.8078 14.7911 19.8704L14.7916 19.9239C14.7921 19.9398 14.7911 19.9466 14.7911 19.9562V19.9938C14.7911 20.0555 14.7873 20.12 14.7796 20.1923L14.7776 20.2067L14.7767 20.2222C14.6258 22.8653 12.44 24.9351 9.80145 24.9351C9.06324 24.9351 8.3529 24.7761 7.6887 24.4639C7.50703 24.3791 7.31671 24.3348 7.12063 24.3348C6.64002 24.3348 6.19113 24.6008 5.94987 25.0267C5.71822 25.4352 5.72591 25.9209 5.96909 26.3275L5.98543 26.3536C7.65602 29.0141 10.3522 30.9586 13.3839 31.6871C14.2125 31.8866 14.7911 32.6401 14.7911 33.518C14.7911 34.5355 13.9721 35.3633 12.9658 35.3633C12.8245 35.3633 12.6822 35.3459 12.5419 35.3122C9.15167 34.5037 6.07579 32.5447 3.88134 29.7965C1.62057 26.9664 0.425781 23.5553 0.425781 19.9321C0.425781 16.308 1.62057 12.8968 3.88134 10.0658C6.07579 7.31854 9.15167 5.35953 12.5419 4.55011C12.6822 4.51734 12.8245 4.5 12.9658 4.5ZM99.1309 13.6557L102.669 22.6413L106.25 13.6557H108.284L101.503 30.22H99.5115L101.568 25.1226L96.9691 13.6557H99.1309ZM73.8539 13.3868C76.9682 13.3868 79.5961 16.0021 79.5961 19.3554C79.5961 23.0209 76.8413 25.5697 73.7693 25.5697C71.8613 25.5697 70.4637 24.7207 69.6582 23.5133H69.6159V30.22H67.7088V13.6557H69.6159V15.4885H69.6582C70.5694 14.1028 72.2217 13.3868 73.8539 13.3868ZM90.825 13.3868C94.2998 13.3868 96.7999 16.2034 96.7999 19.4893C96.7999 22.8205 94.4267 25.5697 90.825 25.5697C87.2224 25.5697 84.8501 22.8205 84.8501 19.4893C84.8501 16.2034 87.3503 13.3868 90.825 13.3868ZM42.3472 13.3868C45.7586 13.3868 48.1318 16.137 48.1318 20.2496H38.6821C38.9782 22.2395 40.5036 23.6926 42.6433 23.6926C43.9996 23.6926 45.2078 23.0209 46.1825 21.8145L47.6445 23.0441C46.1613 24.7872 44.5936 25.5697 42.6644 25.5697C38.7446 25.5697 36.6482 22.5748 36.6482 19.4672C36.6482 16.1591 38.8936 13.3868 42.3472 13.3868ZM194.152 13.3868C197.627 13.3868 200.127 16.2034 200.127 19.4893C200.127 22.8205 197.754 25.5697 194.152 25.5697C190.55 25.5697 188.178 22.8205 188.178 19.4893C188.178 16.2034 190.678 13.3868 194.152 13.3868ZM175.252 13.3868C178.664 13.3868 181.037 16.137 181.037 20.2496H171.587C171.883 22.2395 173.41 23.6926 175.549 23.6926C176.905 23.6926 178.113 23.0209 179.088 21.8145L180.549 23.0441C179.067 24.7872 177.499 25.5697 175.57 25.5697C171.65 25.5697 169.553 22.5748 169.553 19.4672C169.553 16.1591 171.799 13.3868 175.252 13.3868ZM132.692 13.3868C136.103 13.3868 138.476 16.137 138.476 20.2496H129.027C129.324 22.2395 130.849 23.6926 132.99 23.6926C134.345 23.6926 135.553 23.0209 136.528 21.8145L137.989 23.0441C136.506 24.7872 134.938 25.5697 133.01 25.5697C129.09 25.5697 126.993 22.5748 126.993 19.4672C126.993 16.1591 129.239 13.3868 132.692 13.3868ZM121.314 13.3868C123.688 13.3868 125.553 14.8852 125.553 17.9476V25.3018H123.645V18.1711C123.645 16.1591 122.543 15.2649 121.229 15.2649C119.64 15.2649 118.454 16.3152 118.454 18.2598V25.3018H116.547V18.1711C116.547 16.1591 115.446 15.2649 114.132 15.2649C112.543 15.2649 111.357 16.3152 111.357 18.2598V25.3018H109.449V13.6557H111.357V15.0413H111.398C111.906 13.8561 113.284 13.3868 114.45 13.3868C115.571 13.3868 116.802 13.7 117.713 15.3988C118.391 13.9236 119.853 13.3868 121.314 13.3868ZM144.769 13.3868C146.91 13.3868 149.028 14.6164 149.028 17.7693V25.3018H147.121V18.5286C147.121 16.7845 146.444 15.2649 144.558 15.2649C142.778 15.2649 141.697 16.5388 141.697 18.7522V25.3018H139.79V13.6557H141.697V15.0192H141.739C142.311 13.9689 143.54 13.3868 144.769 13.3868ZM153.265 10.8391V13.6557H155.023V15.421H153.265V22.5748C153.265 23.2002 153.456 23.4237 154.198 23.4237H155.067V25.2796C154.883 25.2944 154.624 25.2993 154.34 25.301L153.901 25.3018C151.951 25.3018 151.358 24.5868 151.358 22.7983V15.421H149.833V13.6557H151.358V10.8391H153.265ZM187.902 13.3868V15.5106C187.627 15.4441 187.33 15.3988 187.033 15.3988C185.444 15.3988 184.385 16.5609 184.385 18.6857V25.3018H182.477V13.6557H184.385V15.3092H184.427C185.38 13.4986 186.292 13.3868 187.902 13.3868ZM82.7951 9.6442V21.6584C82.7951 22.9766 83.4093 23.4237 84.0235 23.4237H84.5954V25.3018H83.8111C82.053 25.3018 80.888 24.2505 80.888 21.8145V9.6442H82.7951ZM61.3956 13.3868C63.7688 13.3868 65.6326 14.8852 65.6326 17.9476V25.3018H63.7256V18.1711C63.7256 16.1591 62.6231 15.2649 61.31 15.2649C59.7212 15.2649 58.535 16.3152 58.535 18.2598V25.3018H56.628V18.1711C56.628 16.1591 55.5255 15.2649 54.2124 15.2649C52.6236 15.2649 51.4365 16.3152 51.4365 18.2598V25.3018H49.5294V13.6557H51.4365V15.0413H51.4788C51.9882 13.8561 53.3647 13.3868 54.5306 13.3868C55.6533 13.3868 56.8817 13.7 57.793 15.3988C58.4706 13.9236 59.9336 13.3868 61.3956 13.3868ZM160.867 9.6442V15.0192H160.908C161.481 13.9689 162.709 13.3868 163.938 13.3868C166.078 13.3868 168.197 14.6164 168.197 17.7693V25.3018H166.291V18.5286C166.291 16.7845 165.613 15.2649 163.727 15.2649C161.947 15.2649 160.867 16.5388 160.867 18.7522V25.3018H158.959V9.6442H160.867ZM73.5146 15.2649C71.4383 15.2649 69.6159 17.143 69.6159 19.4893C69.6159 21.8145 71.3951 23.6926 73.578 23.6926C75.5908 23.6926 77.5622 22.0602 77.5622 19.3785C77.5622 17.433 76.1002 15.2649 73.5146 15.2649ZM194.152 15.2649C192.033 15.2649 190.212 17.0755 190.212 19.4893C190.212 21.7249 192.033 23.6926 194.152 23.6926C196.271 23.6926 198.093 21.7249 198.093 19.4893C198.093 17.0755 196.271 15.2649 194.152 15.2649ZM90.825 15.2649C88.7065 15.2649 86.8841 17.0755 86.8841 19.4893C86.8841 21.7249 88.7065 23.6926 90.825 23.6926C92.9435 23.6926 94.765 21.7249 94.765 19.4893C94.765 17.0755 92.9435 15.2649 90.825 15.2649ZM42.3261 15.2649C39.9952 15.2649 38.8725 17.0081 38.6821 18.5961H45.97C45.7797 16.6737 44.2966 15.2649 42.3261 15.2649ZM132.671 15.2649C130.34 15.2649 129.218 17.0081 129.027 18.5961H136.315C136.124 16.6737 134.642 15.2649 132.671 15.2649ZM175.232 15.2649C172.901 15.2649 171.778 17.0081 171.587 18.5961H178.876C178.685 16.6737 177.202 15.2649 175.232 15.2649Z" fill="#171214"/>
</g>
</g>
</g>
<defs>
<clipPath id="clip0_2001_78">
<rect width="200" height="31.83" fill="white" transform="translate(0.392578 4.5)"/>
</clipPath>
<clipPath id="clip1_2001_78">
<rect width="200" height="31.83" fill="white" transform="translate(0.392578 4.5)"/>
</clipPath>
<clipPath id="clip2_2001_78">
<rect width="199.932" height="31.83" fill="white" transform="translate(0.425781 4.5)"/>
</clipPath>
</defs>
</svg>
